<svg width="32" height="32" viewBox="0 0 32 32" fill="none" xmlns="http://www.w3.org/2000/svg">
<g clip-path="url(#clip0_6_86)">
<path fill-rule="evenodd" clip-rule="evenodd" d="M30 16.8068C30.0011 15.8805 29.9173 14.956 29.7495 14.0444H16.7719V19.2664H24.186C24.0321 20.0915 23.7092 20.8775 23.2368 21.577C22.7644 22.2765 22.1522 22.8749 21.4373 23.3361V26.7241H25.8886C28.4933 24.3739 29.9961 20.9121 29.9961 16.8042L30 16.8068Z" fill="#3E82F1"/>
<path fill-rule="evenodd" clip-rule="evenodd" d="M16.7758 29.9984C20.4952 29.9984 23.6137 28.7902 25.8926 26.7286L21.4413 23.3406C20.2071 24.1507 18.629 24.6302 16.7758 24.6302C13.1875 24.6302 10.1507 22.2545 9.06839 19.0636H4.46521V22.5623C5.61189 24.7984 7.37045 26.6781 9.5444 27.9912C11.7184 29.3044 14.2221 29.9993 16.7758 29.9984Z" fill="#32A753"/>
<path fill-rule="evenodd" clip-rule="evenodd" d="M9.06839 19.0633C8.49218 17.4003 8.49218 15.5973 9.06839 13.9342V10.4355H4.46522C3.5018 12.3173 3.00012 14.3935 3.00012 16.4988C3.00012 18.6041 3.5018 20.6803 4.46522 22.562L9.06839 19.0633Z" fill="#F9BB00"/>
<path fill-rule="evenodd" clip-rule="evenodd" d="M16.7758 8.3682C18.799 8.3682 20.6146 9.04988 22.0421 10.3878L25.9925 6.51522C23.6072 4.33665 20.4887 3 16.7784 3C14.2246 2.99907 11.7209 3.694 9.54697 5.00716C7.37302 6.32032 5.61446 8.19998 4.46777 10.4361L9.07095 13.9348C10.1533 10.7439 13.19 8.3682 16.7784 8.3682H16.7758Z" fill="#E74133"/>
</g>
<defs>
<clipPath id="clip0_6_86">
<rect width="27" height="27" fill="white" transform="translate(3 3)"/>
</clipPath>
</defs>
</svg>
