<svg width="32" height="32" viewBox="0 0 32 32" fill="none" xmlns="http://www.w3.org/2000/svg">
<g clip-path="url(#clip0_6_85)">
<path d="M11.963 15.5885H13.6909L12.827 13.1943L11.963 15.5885Z" fill="black"/>
<path d="M16 3C7.71538 3 1 8.16396 1 14.5349C1 18.6536 3.80817 22.2716 8.03125 24.3085C7.80192 25.0808 6.55433 29.2798 6.50529 29.6103C6.50529 29.6103 6.475 29.8579 6.63942 29.9522C6.69444 29.9792 6.75453 29.9951 6.81604 29.9987C6.87754 30.0023 6.93916 29.9937 6.99712 29.9733C7.47019 29.9086 12.4779 26.4833 13.3433 25.8939C14.2235 26.0131 15.1113 26.0718 16 26.0697C24.2846 26.0697 31 20.9058 31 14.5349C31 8.16396 24.2846 3 16 3ZM8.57644 12.7441C8.55769 14.3759 8.59087 16.0921 8.56346 17.6985C8.55481 18.2119 8.25192 18.3653 7.84231 18.5116C7.79603 18.5275 7.74618 18.5309 7.69808 18.5214C7.22933 18.4314 6.85577 18.2682 6.84423 17.6999C6.81106 16.0949 6.85433 14.3759 6.83125 12.7441C6.43462 12.7287 5.86923 12.7596 5.50144 12.7441C4.99087 12.7118 4.63606 12.3953 4.65769 11.924C4.67933 11.4528 4.9375 11.1138 5.5101 11.1053C6.86298 11.0857 8.53894 11.0857 9.89183 11.1053C10.4688 11.1138 10.7255 11.4542 10.7428 11.924C10.7601 12.3939 10.4111 12.7118 9.90192 12.7441C9.53846 12.7596 8.97452 12.7287 8.57644 12.7441ZM15.8457 18.4342C15.6727 18.511 15.4848 18.5508 15.2947 18.551C14.9341 18.551 14.6587 18.4103 14.5736 18.1782L14.1409 17.0838H11.5072L11.0745 18.1782C10.9909 18.4075 10.7154 18.551 10.3534 18.551C10.1637 18.551 9.9763 18.5111 9.80385 18.4342C9.56442 18.3273 9.3351 18.0319 9.5976 17.2357L11.6731 11.9212C11.7601 11.6871 11.916 11.4833 12.1212 11.3351C12.3265 11.187 12.5719 11.1012 12.8269 11.0885C13.0817 11.1026 13.3267 11.1891 13.5317 11.3373C13.7367 11.4855 13.8928 11.689 13.9808 11.9226L16.049 17.2343C16.313 18.0319 16.0837 18.3329 15.8457 18.4342ZM20.2187 18.4342H17.4423C17.2273 18.4384 17.0193 18.3593 16.8639 18.2143C16.7085 18.0693 16.6183 17.8702 16.613 17.6605V11.9325C16.6222 11.71 16.7193 11.4996 16.884 11.3454C17.0486 11.1911 17.2681 11.105 17.4964 11.105C17.7247 11.105 17.9442 11.1911 18.1088 11.3454C18.2735 11.4996 18.3706 11.71 18.3798 11.9325V16.8911H20.2187C20.3269 16.8847 20.4353 16.9 20.5372 16.936C20.6392 16.972 20.7325 17.0279 20.8114 17.1004C20.8903 17.1729 20.9532 17.2603 20.9962 17.3574C21.0391 17.4544 21.0613 17.559 21.0613 17.6647C21.0613 17.7705 21.0391 17.8751 20.9962 17.9721C20.9532 18.0692 20.8903 18.1566 20.8114 18.2291C20.7325 18.3015 20.6392 18.3575 20.5372 18.3935C20.4353 18.4295 20.3269 18.4448 20.2187 18.4384V18.4342ZM26.9976 17.7984C26.9751 17.9649 26.9022 18.121 26.7881 18.2469C26.6741 18.3727 26.5242 18.4625 26.3576 18.5048C26.1909 18.5471 26.0152 18.54 25.8527 18.4843C25.6903 18.4286 25.5485 18.3269 25.4457 18.1922L23.4163 15.5716L23.1163 15.8642V17.7055C23.1163 17.9294 23.0252 18.1441 22.8629 18.3023C22.7006 18.4606 22.4805 18.5495 22.251 18.5495C22.0214 18.5495 21.8013 18.4606 21.639 18.3023C21.4768 18.1441 21.3856 17.9294 21.3856 17.7055V11.9381C21.3856 11.7143 21.4768 11.4996 21.639 11.3413C21.8013 11.183 22.0214 11.0941 22.251 11.0941C22.4805 11.0941 22.7006 11.183 22.8629 11.3413C23.0252 11.4996 23.1163 11.7143 23.1163 11.9381V13.7471L25.5308 11.3923C25.594 11.3314 25.669 11.2833 25.7515 11.2509C25.8339 11.2186 25.9222 11.2025 26.0111 11.2038C26.2272 11.2093 26.4335 11.2925 26.5906 11.4374C26.7477 11.5823 26.8443 11.7786 26.862 11.9887C26.8698 12.0825 26.857 12.1768 26.8244 12.2654C26.7918 12.3539 26.7402 12.4346 26.6731 12.5022L24.6971 14.4251L26.8274 17.178C26.9653 17.3566 27.025 17.5812 26.9933 17.8026L26.9976 17.7984Z" fill="black"/>
<rect x="4" y="11" width="24" height="8" fill="black"/>
</g>
<defs>
<clipPath id="clip0_6_85">
<rect width="30" height="27" fill="white" transform="translate(1 3)"/>
</clipPath>
</defs>
</svg>
