<svg width="122" height="20" viewBox="0 0 122 20" fill="none" xmlns="http://www.w3.org/2000/svg">
<path d="M120.992 14.844C120.992 15.036 121.07 15.168 121.226 15.24C121.382 15.3 121.604 15.354 121.892 15.402L122 15.42V16.644H118.004L117.914 14.484L117.734 14.646V5.142C117.734 5.022 117.698 4.926 117.626 4.854C117.566 4.782 117.47 4.722 117.338 4.674C117.206 4.626 117.038 4.584 116.834 4.548L116.672 4.512V3.27H120.992V14.844ZM115.016 7.086C115.568 7.086 116.048 7.176 116.456 7.356C116.876 7.524 117.248 7.788 117.572 8.148C117.896 8.496 118.172 8.934 118.4 9.462V11.172C118.112 10.62 117.842 10.17 117.59 9.822C117.35 9.462 117.092 9.198 116.816 9.03C116.552 8.85 116.246 8.76 115.898 8.76C115.574 8.76 115.298 8.838 115.07 8.994C114.842 9.138 114.65 9.354 114.494 9.642C114.338 9.918 114.224 10.26 114.152 10.668C114.08 11.076 114.044 11.538 114.044 12.054C114.044 12.558 114.074 13.002 114.134 13.386C114.206 13.77 114.314 14.094 114.458 14.358C114.602 14.622 114.782 14.82 114.998 14.952C115.214 15.084 115.472 15.15 115.772 15.15C116.12 15.15 116.426 15.06 116.69 14.88C116.966 14.688 117.236 14.394 117.5 13.998C117.776 13.602 118.076 13.098 118.4 12.486V14.178C118.112 14.754 117.806 15.24 117.482 15.636C117.158 16.032 116.786 16.332 116.366 16.536C115.946 16.728 115.448 16.824 114.872 16.824C114.02 16.824 113.282 16.626 112.658 16.23C112.034 15.834 111.554 15.282 111.218 14.574C110.882 13.854 110.714 13.014 110.714 12.054C110.714 11.082 110.894 10.224 111.254 9.48C111.614 8.736 112.118 8.154 112.766 7.734C113.414 7.302 114.164 7.086 115.016 7.086Z" fill="black"/>
<path d="M106.292 10.992V12.126C105.848 12.186 105.452 12.264 105.104 12.36C104.768 12.456 104.48 12.57 104.24 12.702C104 12.822 103.802 12.96 103.646 13.116C103.502 13.26 103.394 13.428 103.322 13.62C103.262 13.8 103.232 13.998 103.232 14.214C103.232 14.49 103.274 14.718 103.358 14.898C103.454 15.078 103.586 15.216 103.754 15.312C103.934 15.396 104.138 15.438 104.366 15.438C104.642 15.438 104.894 15.366 105.122 15.222C105.35 15.078 105.56 14.868 105.752 14.592C105.944 14.316 106.124 13.986 106.292 13.602L106.328 14.808C106.136 15.252 105.896 15.624 105.608 15.924C105.32 16.224 104.978 16.452 104.582 16.608C104.198 16.752 103.748 16.824 103.232 16.824C102.596 16.824 102.05 16.734 101.594 16.554C101.15 16.374 100.808 16.098 100.568 15.726C100.328 15.354 100.208 14.892 100.208 14.34C100.208 13.836 100.328 13.404 100.568 13.044C100.82 12.684 101.198 12.372 101.702 12.108C102.206 11.844 102.836 11.622 103.592 11.442C104.36 11.262 105.26 11.112 106.292 10.992ZM106.202 16.644L106.13 14.79L105.95 14.808V9.84C105.95 9.528 105.902 9.276 105.806 9.084C105.71 8.88 105.56 8.736 105.356 8.652C105.164 8.556 104.906 8.508 104.582 8.508C104.114 8.508 103.724 8.598 103.412 8.778C103.1 8.946 102.872 9.15 102.728 9.39C102.632 9.294 102.572 9.192 102.548 9.084C102.536 8.976 102.56 8.874 102.62 8.778C102.68 8.67 102.77 8.58 102.89 8.508C103.022 8.436 103.184 8.394 103.376 8.382V10.326H100.802V8.256C100.982 8.124 101.252 7.968 101.612 7.788C101.972 7.596 102.428 7.434 102.98 7.302C103.532 7.158 104.18 7.086 104.924 7.086C105.536 7.086 106.1 7.146 106.616 7.266C107.132 7.386 107.576 7.572 107.948 7.824C108.32 8.076 108.608 8.4 108.812 8.796C109.016 9.192 109.118 9.666 109.118 10.218V14.844C109.118 14.964 109.154 15.06 109.226 15.132C109.298 15.204 109.4 15.258 109.532 15.294C109.664 15.33 109.826 15.366 110.018 15.402L110.108 15.42V16.644H106.202Z" fill="black"/>
<path d="M99.2641 11.964C99.2641 12.924 99.0481 13.776 98.6161 14.52C98.1961 15.252 97.5901 15.822 96.7981 16.23C96.0181 16.638 95.0821 16.842 93.9901 16.842C92.9101 16.842 91.9741 16.638 91.1821 16.23C90.3901 15.822 89.7781 15.252 89.3461 14.52C88.9261 13.776 88.7161 12.924 88.7161 11.964C88.7161 11.232 88.8361 10.566 89.0761 9.966C89.3161 9.366 89.6641 8.85 90.1201 8.418C90.5881 7.986 91.1461 7.656 91.7941 7.428C92.4421 7.2 93.1741 7.086 93.9901 7.086C94.8061 7.086 95.5381 7.2 96.1861 7.428C96.8341 7.656 97.3861 7.986 97.8421 8.418C98.3101 8.85 98.6641 9.366 98.9041 9.966C99.1441 10.566 99.2641 11.232 99.2641 11.964ZM92.0461 11.964C92.0461 12.72 92.1181 13.356 92.2621 13.872C92.4061 14.388 92.6221 14.778 92.9101 15.042C93.1981 15.294 93.5581 15.42 93.9901 15.42C94.4221 15.42 94.7821 15.294 95.0701 15.042C95.3581 14.778 95.5741 14.388 95.7181 13.872C95.8621 13.356 95.9341 12.72 95.9341 11.964C95.9341 11.184 95.8621 10.548 95.7181 10.056C95.5741 9.552 95.3581 9.174 95.0701 8.922C94.7821 8.67 94.4221 8.544 93.9901 8.544C93.5581 8.544 93.1981 8.67 92.9101 8.922C92.6221 9.174 92.4061 9.552 92.2621 10.056C92.1181 10.548 92.0461 11.184 92.0461 11.964Z" fill="black"/>
<path d="M81.6188 10.884L84.8408 10.488L87.0368 14.772C87.1328 14.94 87.2288 15.066 87.3248 15.15C87.4208 15.234 87.5288 15.294 87.6488 15.33C87.7688 15.354 87.9008 15.366 88.0448 15.366H88.2068V16.644H84.2108L81.6188 10.884ZM80.3408 15.186C80.3408 15.222 80.3708 15.252 80.4308 15.276C80.4908 15.288 80.5688 15.306 80.6648 15.33C80.7608 15.342 80.8688 15.354 80.9888 15.366C81.1088 15.366 81.2288 15.366 81.3488 15.366H81.5468V16.644H75.6428V15.366H75.8228C76.1348 15.366 76.3928 15.324 76.5968 15.24C76.8008 15.156 76.9028 14.982 76.9028 14.718V5.79C76.9028 5.526 76.8008 5.352 76.5968 5.268C76.3928 5.184 76.1348 5.142 75.8228 5.142H75.6428V3.864H82.3028C83.3468 3.864 84.2288 4.014 84.9488 4.314C85.6808 4.602 86.2388 5.016 86.6228 5.556C87.0068 6.096 87.1988 6.744 87.1988 7.5C87.1988 8.208 87.0308 8.832 86.6948 9.372C86.3708 9.912 85.8848 10.344 85.2368 10.668C84.6008 10.992 83.8088 11.196 82.8608 11.28C82.7888 11.304 82.7048 11.328 82.6088 11.352C82.5248 11.364 82.4408 11.382 82.3568 11.406C82.2728 11.418 82.1828 11.43 82.0868 11.442H79.9628V10.056H81.6188C82.0868 10.056 82.4708 9.954 82.7708 9.75C83.0708 9.546 83.2928 9.258 83.4368 8.886C83.5808 8.502 83.6528 8.052 83.6528 7.536C83.6528 7.068 83.5808 6.666 83.4368 6.33C83.2928 5.982 83.0768 5.718 82.7888 5.538C82.5008 5.358 82.1408 5.268 81.7088 5.268H80.3408V15.186Z" fill="black"/>
<path d="M70.4942 16.644H64.8782V15.492H64.9502C65.0582 15.492 65.1722 15.486 65.2922 15.474C65.4242 15.462 65.5322 15.444 65.6162 15.42C65.7122 15.396 65.7602 15.366 65.7602 15.33L63.4022 11.928V11.55L66.5522 8.742C66.5522 8.646 66.4742 8.58 66.3182 8.544C66.1742 8.496 66.0002 8.466 65.7962 8.454C65.5922 8.43 65.4062 8.418 65.2382 8.418H65.0942V7.266H69.8462V8.418H69.7562C69.5162 8.418 69.2882 8.448 69.0722 8.508C68.8682 8.568 68.6762 8.652 68.4962 8.76C68.3162 8.868 68.1362 9.006 67.9562 9.174L65.0582 11.784L65.7422 10.29L69.0722 14.862C69.1922 15.03 69.3242 15.162 69.4682 15.258C69.6122 15.342 69.7622 15.402 69.9182 15.438C70.0862 15.474 70.2602 15.492 70.4402 15.492H70.4942V16.644ZM62.9522 3.27V15.33C62.9522 15.366 63.0002 15.396 63.0962 15.42C63.1922 15.444 63.3002 15.462 63.4202 15.474C63.5522 15.486 63.6662 15.492 63.7622 15.492H63.8342V16.644H58.7042V15.492H58.7402C58.9322 15.492 59.1002 15.474 59.2442 15.438C59.3882 15.39 59.5022 15.318 59.5862 15.222C59.6702 15.126 59.7122 14.994 59.7122 14.826V5.142C59.7122 5.022 59.6822 4.926 59.6222 4.854C59.5622 4.782 59.4662 4.722 59.3342 4.674C59.2142 4.626 59.0522 4.584 58.8482 4.548L58.7042 4.512V3.27H62.9522Z" fill="black"/>
<path d="M54.2585 15.348C54.6785 15.348 55.0445 15.252 55.3565 15.06C55.6805 14.868 55.9565 14.634 56.1845 14.358C56.4125 14.07 56.6105 13.782 56.7785 13.494L57.9125 14.304C57.6605 14.796 57.3485 15.234 56.9765 15.618C56.6045 16.002 56.1545 16.302 55.6265 16.518C55.0985 16.722 54.4745 16.824 53.7545 16.824C52.7225 16.824 51.8105 16.632 51.0185 16.248C50.2265 15.864 49.6085 15.306 49.1645 14.574C48.7205 13.842 48.4985 12.966 48.4985 11.946C48.4985 10.926 48.7145 10.056 49.1465 9.336C49.5905 8.616 50.2145 8.064 51.0185 7.68C51.8345 7.284 52.7885 7.086 53.8805 7.086C54.5765 7.086 55.1765 7.146 55.6805 7.266C56.1965 7.386 56.6225 7.524 56.9585 7.68C57.2945 7.824 57.5345 7.956 57.6785 8.076V10.704H55.1765V8.274C55.3325 8.286 55.4585 8.334 55.5545 8.418C55.6625 8.502 55.7345 8.598 55.7705 8.706C55.8065 8.814 55.8125 8.928 55.7885 9.048C55.7765 9.156 55.7405 9.24 55.6805 9.3C55.5245 9.084 55.3025 8.904 55.0145 8.76C54.7385 8.616 54.4145 8.544 54.0425 8.544C53.5505 8.544 53.1425 8.676 52.8185 8.94C52.4945 9.204 52.2485 9.594 52.0805 10.11C51.9125 10.614 51.8285 11.226 51.8285 11.946C51.8285 12.498 51.8825 12.984 51.9905 13.404C52.0985 13.824 52.2545 14.178 52.4585 14.466C52.6625 14.754 52.9145 14.976 53.2145 15.132C53.5145 15.276 53.8625 15.348 54.2585 15.348Z" fill="black"/>
<path d="M45.0272 6.006C44.4872 6.006 44.0552 5.874 43.7312 5.61C43.4072 5.346 43.2452 4.98 43.2452 4.512C43.2452 4.032 43.4072 3.66 43.7312 3.396C44.0552 3.132 44.4872 3 45.0272 3C45.5792 3 46.0172 3.132 46.3412 3.396C46.6652 3.66 46.8272 4.032 46.8272 4.512C46.8272 4.98 46.6652 5.346 46.3412 5.61C46.0172 5.874 45.5792 6.006 45.0272 6.006ZM46.7192 7.266V14.844C46.7192 15.096 46.8092 15.27 46.9892 15.366C47.1812 15.45 47.4212 15.492 47.7092 15.492H47.7272V16.644H42.4712V15.492H42.4892C42.7892 15.492 43.0292 15.45 43.2092 15.366C43.3892 15.27 43.4792 15.096 43.4792 14.844V9.138C43.4792 8.946 43.4072 8.814 43.2632 8.742C43.1312 8.67 42.9152 8.604 42.6152 8.544L42.4712 8.508V7.266H46.7192Z" fill="black"/>
<path d="M34.6965 15.204C34.6965 15.24 34.7265 15.27 34.7865 15.294C34.8465 15.306 34.9245 15.318 35.0205 15.33C35.1285 15.342 35.2425 15.354 35.3625 15.366C35.4825 15.366 35.6025 15.366 35.7225 15.366H36.1725V16.644H29.9985V15.384H30.1785C30.4905 15.384 30.7485 15.342 30.9525 15.258C31.1565 15.174 31.2585 15 31.2585 14.736V5.772C31.2585 5.508 31.1565 5.334 30.9525 5.25C30.7485 5.166 30.4905 5.124 30.1785 5.124H29.9985V3.864H36.6405C38.1885 3.864 39.3885 4.2 40.2405 4.872C41.1045 5.532 41.5365 6.474 41.5365 7.698C41.5365 8.526 41.3325 9.246 40.9245 9.858C40.5285 10.458 39.9585 10.926 39.2145 11.262C38.4705 11.586 37.5885 11.748 36.5685 11.748H34.1565V10.326H35.8845C36.3645 10.326 36.7725 10.23 37.1085 10.038C37.4445 9.834 37.6965 9.546 37.8645 9.174C38.0445 8.79 38.1345 8.316 38.1345 7.752C38.1345 7.188 38.0505 6.732 37.8825 6.384C37.7145 6.024 37.4625 5.754 37.1265 5.574C36.8025 5.394 36.4065 5.304 35.9385 5.304H34.6965V15.204Z" fill="black"/>
<circle cx="10" cy="10" r="10" fill="black"/>
<path d="M8.26173 7.69152C8.41534 7.5048 8.6314 7.38006 8.8699 7.34039L14.2977 6.43755C15.2091 6.28594 15.821 7.34577 15.234 8.05932L11.7382 12.3085C11.5846 12.4952 11.3686 12.6199 11.1301 12.6596L5.7023 13.5624C4.79082 13.7141 4.17893 12.6542 4.76597 11.9407L8.26173 7.69152Z" fill="white"/>
<circle cx="9.99963" cy="10" r="1" fill="black"/>
</svg>
